HIERARCHY
ROOT Hips
{
  OFFSET 0.000000 0.000000 0.000000
  CHANNELS 6 Xposition Yposition Zposition Zrotation Xrotation Yrotation
  JOINT Spine
  {
    OFFSET 0.000000 10.000000 0.000000
    CHANNELS 3 Zrotation Xrotation Yrotation
    JOINT Chest
    {
      OFFSET 0.000000 15.000000 0.000000
      CHANNELS 3 Zrotation Xrotation Yrotation
      JOINT Neck
      {
        OFFSET 0.000000 15.000000 0.000000
        CHANNELS 3 Zrotation Xrotation Yrotation
        JOINT Head
        {
          OFFSET 0.000000 10.000000 0.000000
          CHANNELS 3 Zrotation Xrotation Yrotation
          End Site
          {
            OFFSET 0.0 0.0 0.0
          }
        }
      }
      JOINT LeftShoulder
      {
        OFFSET 20.000000 15.000000 0.000000
        CHANNELS 3 Zrotation Xrotation Yrotation
        JOINT LeftArm
        {
          OFFSET 15.000000 0.000000 0.000000
          CHANNELS 3 Zrotation Xrotation Yrotation
          JOINT LeftForeArm
          {
            OFFSET 25.000000 0.000000 0.000000
            CHANNELS 3 Zrotation Xrotation Yrotation
            JOINT LeftHand
            {
              OFFSET 20.000000 0.000000 0.000000
              CHANNELS 3 Zrotation Xrotation Yrotation
              End Site
              {
                OFFSET 0.0 0.0 0.0
              }
            }
          }
        }
      }
      JOINT RightShoulder
      {
        OFFSET -20.000000 15.000000 0.000000
        CHANNELS 3 Zrotation Xrotation Yrotation
        JOINT RightArm
        {
          OFFSET -15.000000 0.000000 0.000000
          CHANNELS 3 Zrotation Xrotation Yrotation
          JOINT RightForeArm
          {
            OFFSET -25.000000 0.000000 0.000000
            CHANNELS 3 Zrotation Xrotation Yrotation
            JOINT RightHand
            {
              OFFSET -20.000000 0.000000 0.000000
              CHANNELS 3 Zrotation Xrotation Yrotation
              End Site
              {
                OFFSET 0.0 0.0 0.0
              }
            }
          }
        }
      }
    }
  }
  JOINT LeftUpLeg
  {
    OFFSET 10.000000 -10.000000 0.000000
    CHANNELS 3 Zrotation Xrotation Yrotation
    JOINT LeftLeg
    {
      OFFSET 0.000000 -45.000000 0.000000
      CHANNELS 3 Zrotation Xrotation Yrotation
      JOINT LeftFoot
      {
        OFFSET 0.000000 -45.000000 0.000000
        CHANNELS 3 Zrotation Xrotation Yrotation
        JOINT LeftToeBase
        {
          OFFSET 0.000000 0.000000 10.000000
          CHANNELS 3 Zrotation Xrotation Yrotation
          End Site
          {
            OFFSET 0.0 0.0 0.0
          }
        }
      }
    }
  }
  JOINT RightUpLeg
  {
    OFFSET -10.000000 -10.000000 0.000000
    CHANNELS 3 Zrotation Xrotation Yrotation
    JOINT RightLeg
    {
      OFFSET 0.000000 -45.000000 0.000000
      CHANNELS 3 Zrotation Xrotation Yrotation
      JOINT RightFoot
      {
        OFFSET 0.000000 -45.000000 0.000000
        CHANNELS 3 Zrotation Xrotation Yrotation
        JOINT RightToeBase
        {
          OFFSET 0.000000 0.000000 10.000000
          CHANNELS 3 Zrotation Xrotation Yrotation
          End Site
          {
            OFFSET 0.0 0.0 0.0
          }
        }
      }
    }
  }
}
MOTION
Frames: 10
Frame Time: 0.033333
18.071115 0.472923 8.946862 0.000000 0.000000 0.000000 0.000000 0.000000 0.000000 0.000000 0.000000 0.000000 0.000000 0.000000 0.000000 0.000000 0.000000 0.000000 -89.106608 -25.971667 26.365675 -9.535102 -8.173927 81.174649 138.178106 24.630295 9.536364 138.178106 24.630295 9.536364 155.341247 -69.952002 -17.387475 -159.099211 -116.837831 33.401727 -164.105907 106.220236 -21.072787 -164.105907 106.220236 -21.072787 6.951817 -34.610792 2.168370 -22.590357 -38.294962 -7.934095 35.879053 104.250688 28.267084 35.879053 104.250688 28.267084 -8.430205 -19.193178 -1.427849 -14.042450 -40.800478 -5.245041 -40.012766 112.977464 -27.109879 -40.012766 112.977464 -27.109879
16.812037 0.467420 10.815452 0.000000 0.000000 0.000000 0.000000 0.000000 0.000000 0.000000 0.000000 0.000000 0.000000 0.000000 0.000000 0.000000 0.000000 0.000000 -80.198120 -8.617456 10.226002 50.638052 30.515606 59.932909 111.817784 -8.444980 -5.721381 111.817784 -8.444980 -5.721381 161.610587 -87.558991 -17.634496 -161.132223 -103.497024 23.802678 -163.671799 119.022679 -27.387868 -163.671799 119.022679 -27.387868 5.039075 -33.774195 1.530644 -28.533289 -37.366984 -9.829132 40.777191 106.906079 30.805030 40.777191 106.906079 30.805030 -7.946954 -17.454898 -1.221865 -14.353190 -41.185781 -5.417319 -42.069538 112.595739 -28.771428 -42.069538 112.595739 -28.771428
16.253397 0.497888 11.450288 0.000000 0.000000 0.000000 0.000000 0.000000 0.000000 0.000000 0.000000 0.000000 0.000000 0.000000 0.000000 0.000000 0.000000 0.000000 -79.408808 -9.651589 11.611238 74.057373 36.157700 46.801290 116.124624 26.943099 16.986182 116.124624 26.943099 16.986182 164.118208 -99.830756 -18.821181 -160.357088 -105.422037 25.615588 -165.435918 119.088825 -24.521729 -165.435918 119.088825 -24.521729 3.299149 -30.369291 0.895639 -33.204846 -35.482250 -10.897975 40.100811 97.608240 35.432991 40.100811 97.608240 35.432991 -7.245977 -17.937180 -1.145067 -15.136245 -41.577448 -5.775072 -39.838741 113.339299 -26.808536 -39.838741 113.339299 -26.808536
15.937497 0.495403 11.790287 0.000000 0.000000 0.000000 0.000000 0.000000 0.000000 0.000000 0.000000 0.000000 0.000000 0.000000 0.000000 0.000000 0.000000 0.000000 -79.072385 -12.422892 15.023363 77.693769 41.224098 50.066094 115.264860 13.883291 8.825404 115.264860 13.883291 8.825404 164.354015 -94.589524 -16.934060 -160.133979 -91.053236 20.227064 -163.371452 120.893467 -28.905703 -163.371452 120.893467 -28.905703 3.261100 -32.377670 0.946982 -33.064021 -38.089345 -11.700529 44.154276 99.293956 38.029316 44.154276 99.293956 38.029316 -6.412135 -17.934541 -1.012859 -15.895016 -41.909862 -6.120699 -40.508615 113.613592 -27.143924 -40.508615 113.613592 -27.143924
15.670100 0.494090 12.266474 0.000000 0.000000 0.000000 0.000000 0.000000 0.000000 0.000000 0.000000 0.000000 0.000000 0.000000 0.000000 0.000000 0.000000 0.000000 -81.135189 -8.026681 9.370041 81.521963 37.974249 43.520353 120.976153 -8.419164 -4.771481 120.976153 -8.419164 -4.771481 163.614585 -91.458700 -16.802018 -161.236471 -87.090519 17.849455 -163.055351 121.398064 -29.730291 -163.055351 121.398064 -29.730291 3.055786 -32.644449 0.895055 -33.267892 -38.597926 -11.944837 44.106640 94.194556 41.261360 44.106640 94.194556 41.261360 -6.247683 -16.436596 -0.903218 -16.011636 -42.544314 -6.268342 -37.419419 111.991441 -25.739257 -37.419419 111.991441 -25.739257
15.662906 0.500343 12.181873 0.000000 0.000000 0.000000 0.000000 0.000000 0.000000 0.000000 0.000000 0.000000 0.000000 0.000000 0.000000 0.000000 0.000000 0.000000 -80.743203 -10.198050 11.982610 79.972083 42.719205 49.999724 120.766504 1.666860 0.947598 120.766504 1.666860 0.947598 163.724731 -93.721752 -17.352223 -160.246906 -78.846433 16.290914 -163.370735 122.986454 -30.121919 -163.370735 122.986454 -30.121919 3.087974 -32.032370 0.886603 -34.351208 -37.273420 -11.901945 45.543608 100.848674 38.270882 45.543608 100.848674 38.270882 -6.354163 -15.844144 -0.885098 -15.864167 -42.827077 -6.255257 -36.888115 111.814206 -25.441787 -36.888115 111.814206 -25.441787
16.564284 0.350662 11.767475 0.000000 0.000000 0.000000 0.000000 0.000000 0.000000 0.000000 0.000000 0.000000 0.000000 0.000000 0.000000 0.000000 0.000000 0.000000 -85.903323 -13.429969 14.416138 -46.449259 -35.358803 73.210293 142.453858 42.416960 15.027620 142.453858 42.416960 15.027620 136.795509 -47.591011 -19.808898 -161.830404 -17.342637 2.793936 -164.707849 130.112577 -32.199848 -164.707849 130.112577 -32.199848 3.163708 -38.206405 1.095975 -31.411471 -40.299337 -11.781794 50.897103 113.826377 34.453369 50.897103 113.826377 34.453369 -7.840306 -15.262002 -1.052051 -14.182350 -42.246129 -5.502987 -35.064010 113.628984 -23.347642 -35.064010 113.628984 -23.347642
17.313648 0.348665 11.258990 0.000000 0.000000 0.000000 0.000000 0.000000 0.000000 0.000000 0.000000 0.000000 0.000000 0.000000 0.000000 0.000000 0.000000 0.000000 -72.274652 -13.695303 18.677897 -105.611300 -91.488523 75.827344 168.145205 135.995353 28.819911 168.145205 135.995353 28.819911 114.754313 -32.268724 -20.981051 -156.297403 20.075161 -4.254359 -159.876871 118.716358 -33.348775 -159.876871 118.716358 -33.348775 4.154223 -41.227112 1.563179 -30.623920 -40.380434 -11.498705 46.971448 113.200224 31.975009 46.971448 113.200224 31.975009 -9.266039 -12.629976 -1.027647 -14.073024 -40.423383 -5.203751 -29.781696 114.359601 -19.462995 -29.781696 114.359601 -19.462995
17.681628 0.349791 10.632927 0.000000 0.000000 0.000000 0.000000 0.000000 0.000000 0.000000 0.000000 0.000000 0.000000 0.000000 0.000000 0.000000 0.000000 0.000000 -56.281735 -12.798992 23.686097 95.458173 86.708309 81.273979 129.463050 58.495905 29.612110 129.463050 58.495905 29.612110 98.510729 -26.421067 -22.865274 -163.756223 76.657237 -12.874014 -164.966343 129.789001 -31.456088 -164.966343 129.789001 -31.456088 4.548533 -43.519738 1.816391 -25.308520 -43.179593 -10.154557 52.038721 118.514083 32.380050 52.038721 118.514083 32.380050 -9.421871 -11.648219 -0.963193 -13.512276 -39.751331 -4.904656 -31.751584 114.754475 -20.634420 -31.751584 114.754475 -20.634420
18.434974 0.350507 10.161769 0.000000 0.000000 0.000000 0.000000 0.000000 0.000000 0.000000 0.000000 0.000000 0.000000 0.000000 0.000000 0.000000 0.000000 0.000000 -47.024126 -8.708954 19.855211 21.816701 14.822313 68.034121 88.229038 50.473307 51.852914 88.229038 50.473307 51.852914 89.150015 -23.019395 -23.354065 -168.203010 146.726391 -38.145301 -168.468122 148.969260 -39.975463 -168.468122 148.969260 -39.975463 2.374715 -43.028033 0.936210 -24.526964 -44.423889 -10.144446 51.867948 118.799532 32.090870 51.867948 118.799532 32.090870 -10.829595 -7.674887 -0.728570 -11.757460 -40.174190 -4.312731 -28.279256 113.172469 -18.872185 -28.279256 113.172469 -18.872185
